<?xml version="1.0" encoding="utf-8" standalone="no"?>
<!DOCTYPE svg PUBLIC "-//W3C//DTD SVG 1.1//EN"
  "http://www.w3.org/Graphics/SVG/1.1/DTD/svg11.dtd">
<!-- Created with matplotlib (https://matplotlib.org/) -->
<svg height="574.56pt" version="1.1" viewBox="0 0 576 574.56" width="576pt" xmlns="http://www.w3.org/2000/svg" xmlns:xlink="http://www.w3.org/1999/xlink">
 <defs>
  <style type="text/css">
*{stroke-linecap:butt;stroke-linejoin:round;}
  </style>
 </defs>
 <g id="figure_1">
  <g id="patch_1">
   <path d="M 0 574.56 
L 576 574.56 
L 576 0 
L 0 0 
z
" style="fill:#ffffff;"/>
  </g>
  <g id="axes_1">
   <g id="patch_2">
    <path d="M 73.9944 511.3584 
L 516.4056 511.3584 
L 516.4056 68.9472 
L 73.9944 68.9472 
z
" style="fill:#ffffff;"/>
   </g>
   <g id="PatchCollection_1">
    <path clip-path="url(#pb72919fb73)" d="M 295.2 378.63504 
C 318.665764 378.63504 341.173591 369.311993 357.766392 352.719192 
C 374.359193 336.126391 383.68224 313.618564 383.68224 290.1528 
C 383.68224 266.687036 374.359193 244.179209 357.766392 227.586408 
C 341.173591 210.993607 318.665764 201.67056 295.2 201.67056 
C 271.734236 201.67056 249.226409 210.993607 232.633608 227.586408 
C 216.040807 244.179209 206.71776 266.687036 206.71776 290.1528 
C 206.71776 313.618564 216.040807 336.126391 232.633608 352.719192 
C 249.226409 369.311993 271.734236 378.63504 295.2 378.63504 
z
" style="fill:#fde725;"/>
    <path clip-path="url(#pb72919fb73)" d="M 295.2 245.91168 
C 306.932882 245.91168 318.186795 241.250157 326.483196 232.953756 
C 334.779597 224.657355 339.44112 213.403442 339.44112 201.67056 
C 339.44112 189.937678 334.779597 178.683765 326.483196 170.387364 
C 318.186795 162.090963 306.932882 157.42944 295.2 157.42944 
C 283.467118 157.42944 272.213205 162.090963 263.916804 170.387364 
C 255.620403 178.683765 250.95888 189.937678 250.95888 201.67056 
C 250.95888 213.403442 255.620403 224.657355 263.916804 232.953756 
C 272.213205 241.250157 283.467118 245.91168 295.2 245.91168 
z
" style="fill:#31688e;"/>
    <path clip-path="url(#pb72919fb73)" d="M 383.68224 334.39392 
C 395.415122 334.39392 406.669035 329.732397 414.965436 321.435996 
C 423.261837 313.139595 427.92336 301.885682 427.92336 290.1528 
C 427.92336 278.419918 423.261837 267.166005 414.965436 258.869604 
C 406.669035 250.573203 395.415122 245.91168 383.68224 245.91168 
C 371.949358 245.91168 360.695445 250.573203 352.399044 258.869604 
C 344.102643 267.166005 339.44112 278.419918 339.44112 290.1528 
C 339.44112 301.885682 344.102643 313.139595 352.399044 321.435996 
C 360.695445 329.732397 371.949358 334.39392 383.68224 334.39392 
z
" style="fill:#31688e;"/>
    <path clip-path="url(#pb72919fb73)" d="M 295.2 422.87616 
C 306.932882 422.87616 318.186795 418.214637 326.483196 409.918236 
C 334.779597 401.621835 339.44112 390.367922 339.44112 378.63504 
C 339.44112 366.902158 334.779597 355.648245 326.483196 347.351844 
C 318.186795 339.055443 306.932882 334.39392 295.2 334.39392 
C 283.467118 334.39392 272.213205 339.055443 263.916804 347.351844 
C 255.620403 355.648245 250.95888 366.902158 250.95888 378.63504 
C 250.95888 390.367922 255.620403 401.621835 263.916804 409.918236 
C 272.213205 418.214637 283.467118 422.87616 295.2 422.87616 
z
" style="fill:#31688e;"/>
    <path clip-path="url(#pb72919fb73)" d="M 206.71776 334.39392 
C 218.450642 334.39392 229.704555 329.732397 238.000956 321.435996 
C 246.297357 313.139595 250.95888 301.885682 250.95888 290.1528 
C 250.95888 278.419918 246.297357 267.166005 238.000956 258.869604 
C 229.704555 250.573203 218.450642 245.91168 206.71776 245.91168 
C 194.984878 245.91168 183.730965 250.573203 175.434564 258.869604 
C 167.138163 267.166005 162.47664 278.419918 162.47664 290.1528 
C 162.47664 301.885682 167.138163 313.139595 175.434564 321.435996 
C 183.730965 329.732397 194.984878 334.39392 206.71776 334.39392 
z
" style="fill:#31688e;"/>
    <path clip-path="url(#pb72919fb73)" d="M 295.2 179.55 
C 301.066441 179.55 306.693398 177.219238 310.841598 173.071038 
C 314.989798 168.922838 317.32056 163.295881 317.32056 157.42944 
C 317.32056 151.562999 314.989798 145.936042 310.841598 141.787842 
C 306.693398 137.639642 301.066441 135.30888 295.2 135.30888 
C 289.333559 135.30888 283.706602 137.639642 279.558402 141.787842 
C 275.410202 145.936042 273.07944 151.562999 273.07944 157.42944 
C 273.07944 163.295881 275.410202 168.922838 279.558402 173.071038 
C 283.706602 177.219238 289.333559 179.55 295.2 179.55 
z
" style="fill:#482878;"/>
    <path clip-path="url(#pb72919fb73)" d="M 339.44112 223.79112 
C 345.307561 223.79112 350.934518 221.460358 355.082718 217.312158 
C 359.230918 213.163958 361.56168 207.537001 361.56168 201.67056 
C 361.56168 195.804119 359.230918 190.177162 355.082718 186.028962 
C 350.934518 181.880762 345.307561 179.55 339.44112 179.55 
C 333.574679 179.55 327.947722 181.880762 323.799522 186.028962 
C 319.651322 190.177162 317.32056 195.804119 317.32056 201.67056 
C 317.32056 207.537001 319.651322 213.163958 323.799522 217.312158 
C 327.947722 221.460358 333.574679 223.79112 339.44112 223.79112 
z
" style="fill:#482878;"/>
    <path clip-path="url(#pb72919fb73)" d="M 295.2 268.03224 
C 301.066441 268.03224 306.693398 265.701478 310.841598 261.553278 
C 314.989798 257.405078 317.32056 251.778121 317.32056 245.91168 
C 317.32056 240.045239 314.989798 234.418282 310.841598 230.270082 
C 306.693398 226.121882 301.066441 223.79112 295.2 223.79112 
C 289.333559 223.79112 283.706602 226.121882 279.558402 230.270082 
C 275.410202 234.418282 273.07944 240.045239 273.07944 245.91168 
C 273.07944 251.778121 275.410202 257.405078 279.558402 261.553278 
C 283.706602 265.701478 289.333559 268.03224 295.2 268.03224 
z
" style="fill:#482878;"/>
    <path clip-path="url(#pb72919fb73)" d="M 250.95888 223.79112 
C 256.825321 223.79112 262.452278 221.460358 266.600478 217.312158 
C 270.748678 213.163958 273.07944 207.537001 273.07944 201.67056 
C 273.07944 195.804119 270.748678 190.177162 266.600478 186.028962 
C 262.452278 181.880762 256.825321 179.55 250.95888 179.55 
C 245.092439 179.55 239.465482 181.880762 235.317282 186.028962 
C 231.169082 190.177162 228.83832 195.804119 228.83832 201.67056 
C 228.83832 207.537001 231.169082 213.163958 235.317282 217.312158 
C 239.465482 221.460358 245.092439 223.79112 250.95888 223.79112 
z
" style="fill:#482878;"/>
    <path clip-path="url(#pb72919fb73)" d="M 383.68224 268.03224 
C 389.548681 268.03224 395.175638 265.701478 399.323838 261.553278 
C 403.472038 257.405078 405.8028 251.778121 405.8028 245.91168 
C 405.8028 240.045239 403.472038 234.418282 399.323838 230.270082 
C 395.175638 226.121882 389.548681 223.79112 383.68224 223.79112 
C 377.815799 223.79112 372.188842 226.121882 368.040642 230.270082 
C 363.892442 234.418282 361.56168 240.045239 361.56168 245.91168 
C 361.56168 251.778121 363.892442 257.405078 368.040642 261.553278 
C 372.188842 265.701478 377.815799 268.03224 383.68224 268.03224 
z
" style="fill:#482878;"/>
    <path clip-path="url(#pb72919fb73)" d="M 427.92336 312.27336 
C 433.789801 312.27336 439.416758 309.942598 443.564958 305.794398 
C 447.713158 301.646198 450.04392 296.019241 450.04392 290.1528 
C 450.04392 284.286359 447.713158 278.659402 443.564958 274.511202 
C 439.416758 270.363002 433.789801 268.03224 427.92336 268.03224 
C 422.056919 268.03224 416.429962 270.363002 412.281762 274.511202 
C 408.133562 278.659402 405.8028 284.286359 405.8028 290.1528 
C 405.8028 296.019241 408.133562 301.646198 412.281762 305.794398 
C 416.429962 309.942598 422.056919 312.27336 427.92336 312.27336 
z
" style="fill:#482878;"/>
    <path clip-path="url(#pb72919fb73)" d="M 383.68224 356.51448 
C 389.548681 356.51448 395.175638 354.183718 399.323838 350.035518 
C 403.472038 345.887318 405.8028 340.260361 405.8028 334.39392 
C 405.8028 328.527479 403.472038 322.900522 399.323838 318.752322 
C 395.175638 314.604122 389.548681 312.27336 383.68224 312.27336 
C 377.815799 312.27336 372.188842 314.604122 368.040642 318.752322 
C 363.892442 322.900522 361.56168 328.527479 361.56168 334.39392 
C 361.56168 340.260361 363.892442 345.887318 368.040642 350.035518 
C 372.188842 354.183718 377.815799 356.51448 383.68224 356.51448 
z
" style="fill:#482878;"/>
    <path clip-path="url(#pb72919fb73)" d="M 339.44112 312.27336 
C 345.307561 312.27336 350.934518 309.942598 355.082718 305.794398 
C 359.230918 301.646198 361.56168 296.019241 361.56168 290.1528 
C 361.56168 284.286359 359.230918 278.659402 355.082718 274.511202 
C 350.934518 270.363002 345.307561 268.03224 339.44112 268.03224 
C 333.574679 268.03224 327.947722 270.363002 323.799522 274.511202 
C 319.651322 278.659402 317.32056 284.286359 317.32056 290.1528 
C 317.32056 296.019241 319.651322 301.646198 323.799522 305.794398 
C 327.947722 309.942598 333.574679 312.27336 339.44112 312.27336 
z
" style="fill:#482878;"/>
    <path clip-path="url(#pb72919fb73)" d="M 295.2 356.51448 
C 301.066441 356.51448 306.693398 354.183718 310.841598 350.035518 
C 314.989798 345.887318 317.32056 340.260361 317.32056 334.39392 
C 317.32056 328.527479 314.989798 322.900522 310.841598 318.752322 
C 306.693398 314.604122 301.066441 312.27336 295.2 312.27336 
C 289.333559 312.27336 283.706602 314.604122 279.558402 318.752322 
C 275.410202 322.900522 273.07944 328.527479 273.07944 334.39392 
C 273.07944 340.260361 275.410202 345.887318 279.558402 350.035518 
C 283.706602 354.183718 289.333559 356.51448 295.2 356.51448 
z
" style="fill:#482878;"/>
    <path clip-path="url(#pb72919fb73)" d="M 339.44112 400.7556 
C 345.307561 400.7556 350.934518 398.424838 355.082718 394.276638 
C 359.230918 390.128438 361.56168 384.501481 361.56168 378.63504 
C 361.56168 372.768599 359.230918 367.141642 355.082718 362.993442 
C 350.934518 358.845242 345.307561 356.51448 339.44112 356.51448 
C 333.574679 356.51448 327.947722 358.845242 323.799522 362.993442 
C 319.651322 367.141642 317.32056 372.768599 317.32056 378.63504 
C 317.32056 384.501481 319.651322 390.128438 323.799522 394.276638 
C 327.947722 398.424838 333.574679 400.7556 339.44112 400.7556 
z
" style="fill:#482878;"/>
    <path clip-path="url(#pb72919fb73)" d="M 295.2 444.99672 
C 301.066441 444.99672 306.693398 442.665958 310.841598 438.517758 
C 314.989798 434.369558 317.32056 428.742601 317.32056 422.87616 
C 317.32056 417.009719 314.989798 411.382762 310.841598 407.234562 
C 306.693398 403.086362 301.066441 400.7556 295.2 400.7556 
C 289.333559 400.7556 283.706602 403.086362 279.558402 407.234562 
C 275.410202 411.382762 273.07944 417.009719 273.07944 422.87616 
C 273.07944 428.742601 275.410202 434.369558 279.558402 438.517758 
C 283.706602 442.665958 289.333559 444.99672 295.2 444.99672 
z
" style="fill:#482878;"/>
    <path clip-path="url(#pb72919fb73)" d="M 250.95888 400.7556 
C 256.825321 400.7556 262.452278 398.424838 266.600478 394.276638 
C 270.748678 390.128438 273.07944 384.501481 273.07944 378.63504 
C 273.07944 372.768599 270.748678 367.141642 266.600478 362.993442 
C 262.452278 358.845242 256.825321 356.51448 250.95888 356.51448 
C 245.092439 356.51448 239.465482 358.845242 235.317282 362.993442 
C 231.169082 367.141642 228.83832 372.768599 228.83832 378.63504 
C 228.83832 384.501481 231.169082 390.128438 235.317282 394.276638 
C 239.465482 398.424838 245.092439 400.7556 250.95888 400.7556 
z
" style="fill:#482878;"/>
    <path clip-path="url(#pb72919fb73)" d="M 206.71776 268.03224 
C 212.584201 268.03224 218.211158 265.701478 222.359358 261.553278 
C 226.507558 257.405078 228.83832 251.778121 228.83832 245.91168 
C 228.83832 240.045239 226.507558 234.418282 222.359358 230.270082 
C 218.211158 226.121882 212.584201 223.79112 206.71776 223.79112 
C 200.851319 223.79112 195.224362 226.121882 191.076162 230.270082 
C 186.927962 234.418282 184.5972 240.045239 184.5972 245.91168 
C 184.5972 251.778121 186.927962 257.405078 191.076162 261.553278 
C 195.224362 265.701478 200.851319 268.03224 206.71776 268.03224 
z
" style="fill:#482878;"/>
    <path clip-path="url(#pb72919fb73)" d="M 250.95888 312.27336 
C 256.825321 312.27336 262.452278 309.942598 266.600478 305.794398 
C 270.748678 301.646198 273.07944 296.019241 273.07944 290.1528 
C 273.07944 284.286359 270.748678 278.659402 266.600478 274.511202 
C 262.452278 270.363002 256.825321 268.03224 250.95888 268.03224 
C 245.092439 268.03224 239.465482 270.363002 235.317282 274.511202 
C 231.169082 278.659402 228.83832 284.286359 228.83832 290.1528 
C 228.83832 296.019241 231.169082 301.646198 235.317282 305.794398 
C 239.465482 309.942598 245.092439 312.27336 250.95888 312.27336 
z
" style="fill:#482878;"/>
    <path clip-path="url(#pb72919fb73)" d="M 206.71776 356.51448 
C 212.584201 356.51448 218.211158 354.183718 222.359358 350.035518 
C 226.507558 345.887318 228.83832 340.260361 228.83832 334.39392 
C 228.83832 328.527479 226.507558 322.900522 222.359358 318.752322 
C 218.211158 314.604122 212.584201 312.27336 206.71776 312.27336 
C 200.851319 312.27336 195.224362 314.604122 191.076162 318.752322 
C 186.927962 322.900522 184.5972 328.527479 184.5972 334.39392 
C 184.5972 340.260361 186.927962 345.887318 191.076162 350.035518 
C 195.224362 354.183718 200.851319 356.51448 206.71776 356.51448 
z
" style="fill:#482878;"/>
    <path clip-path="url(#pb72919fb73)" d="M 162.47664 312.27336 
C 168.343081 312.27336 173.970038 309.942598 178.118238 305.794398 
C 182.266438 301.646198 184.5972 296.019241 184.5972 290.1528 
C 184.5972 284.286359 182.266438 278.659402 178.118238 274.511202 
C 173.970038 270.363002 168.343081 268.03224 162.47664 268.03224 
C 156.610199 268.03224 150.983242 270.363002 146.835042 274.511202 
C 142.686842 278.659402 140.35608 284.286359 140.35608 290.1528 
C 140.35608 296.019241 142.686842 301.646198 146.835042 305.794398 
C 150.983242 309.942598 156.610199 312.27336 162.47664 312.27336 
z
" style="fill:#482878;"/>
    <path clip-path="url(#pb72919fb73)" d="M 295.2 146.36916 
C 298.133221 146.36916 300.946699 145.203779 303.020799 143.129679 
C 305.094899 141.055579 306.26028 138.242101 306.26028 135.30888 
C 306.26028 132.375659 305.094899 129.562181 303.020799 127.488081 
C 300.946699 125.413981 298.133221 124.2486 295.2 124.2486 
C 292.266779 124.2486 289.453301 125.413981 287.379201 127.488081 
C 285.305101 129.562181 284.13972 132.375659 284.13972 135.30888 
C 284.13972 138.242101 285.305101 141.055579 287.379201 143.129679 
C 289.453301 145.203779 292.266779 146.36916 295.2 146.36916 
z
" style="fill:#440154;"/>
    <path clip-path="url(#pb72919fb73)" d="M 317.32056 168.48972 
C 320.253781 168.48972 323.067259 167.324339 325.141359 165.250239 
C 327.215459 163.176139 328.38084 160.362661 328.38084 157.42944 
C 328.38084 154.496219 327.215459 151.682741 325.141359 149.608641 
C 323.067259 147.534541 320.253781 146.36916 317.32056 146.36916 
C 314.387339 146.36916 311.573861 147.534541 309.499761 149.608641 
C 307.425661 151.682741 306.26028 154.496219 306.26028 157.42944 
C 306.26028 160.362661 307.425661 163.176139 309.499761 165.250239 
C 311.573861 167.324339 314.387339 168.48972 317.32056 168.48972 
z
" style="fill:#440154;"/>
    <path clip-path="url(#pb72919fb73)" d="M 295.2 190.61028 
C 298.133221 190.61028 300.946699 189.444899 303.020799 187.370799 
C 305.094899 185.296699 306.26028 182.483221 306.26028 179.55 
C 306.26028 176.616779 305.094899 173.803301 303.020799 171.729201 
C 300.946699 169.655101 298.133221 168.48972 295.2 168.48972 
C 292.266779 168.48972 289.453301 169.655101 287.379201 171.729201 
C 285.305101 173.803301 284.13972 176.616779 284.13972 179.55 
C 284.13972 182.483221 285.305101 185.296699 287.379201 187.370799 
C 289.453301 189.444899 292.266779 190.61028 295.2 190.61028 
z
" style="fill:#440154;"/>
    <path clip-path="url(#pb72919fb73)" d="M 273.07944 168.48972 
C 276.012661 168.48972 278.826139 167.324339 280.900239 165.250239 
C 282.974339 163.176139 284.13972 160.362661 284.13972 157.42944 
C 284.13972 154.496219 282.974339 151.682741 280.900239 149.608641 
C 278.826139 147.534541 276.012661 146.36916 273.07944 146.36916 
C 270.146219 146.36916 267.332741 147.534541 265.258641 149.608641 
C 263.184541 151.682741 262.01916 154.496219 262.01916 157.42944 
C 262.01916 160.362661 263.184541 163.176139 265.258641 165.250239 
C 267.332741 167.324339 270.146219 168.48972 273.07944 168.48972 
z
" style="fill:#440154;"/>
    <path clip-path="url(#pb72919fb73)" d="M 339.44112 190.61028 
C 342.374341 190.61028 345.187819 189.444899 347.261919 187.370799 
C 349.336019 185.296699 350.5014 182.483221 350.5014 179.55 
C 350.5014 176.616779 349.336019 173.803301 347.261919 171.729201 
C 345.187819 169.655101 342.374341 168.48972 339.44112 168.48972 
C 336.507899 168.48972 333.694421 169.655101 331.620321 171.729201 
C 329.546221 173.803301 328.38084 176.616779 328.38084 179.55 
C 328.38084 182.483221 329.546221 185.296699 331.620321 187.370799 
C 333.694421 189.444899 336.507899 190.61028 339.44112 190.61028 
z
" style="fill:#440154;"/>
    <path clip-path="url(#pb72919fb73)" d="M 361.56168 212.73084 
C 364.494901 212.73084 367.308379 211.565459 369.382479 209.491359 
C 371.456579 207.417259 372.62196 204.603781 372.62196 201.67056 
C 372.62196 198.737339 371.456579 195.923861 369.382479 193.849761 
C 367.308379 191.775661 364.494901 190.61028 361.56168 190.61028 
C 358.628459 190.61028 355.814981 191.775661 353.740881 193.849761 
C 351.666781 195.923861 350.5014 198.737339 350.5014 201.67056 
C 350.5014 204.603781 351.666781 207.417259 353.740881 209.491359 
C 355.814981 211.565459 358.628459 212.73084 361.56168 212.73084 
z
" style="fill:#440154;"/>
    <path clip-path="url(#pb72919fb73)" d="M 339.44112 234.8514 
C 342.374341 234.8514 345.187819 233.686019 347.261919 231.611919 
C 349.336019 229.537819 350.5014 226.724341 350.5014 223.79112 
C 350.5014 220.857899 349.336019 218.044421 347.261919 215.970321 
C 345.187819 213.896221 342.374341 212.73084 339.44112 212.73084 
C 336.507899 212.73084 333.694421 213.896221 331.620321 215.970321 
C 329.546221 218.044421 328.38084 220.857899 328.38084 223.79112 
C 328.38084 226.724341 329.546221 229.537819 331.620321 231.611919 
C 333.694421 233.686019 336.507899 234.8514 339.44112 234.8514 
z
" style="fill:#440154;"/>
    <path clip-path="url(#pb72919fb73)" d="M 317.32056 212.73084 
C 320.253781 212.73084 323.067259 211.565459 325.141359 209.491359 
C 327.215459 207.417259 328.38084 204.603781 328.38084 201.67056 
C 328.38084 198.737339 327.215459 195.923861 325.141359 193.849761 
C 323.067259 191.775661 320.253781 190.61028 317.32056 190.61028 
C 314.387339 190.61028 311.573861 191.775661 309.499761 193.849761 
C 307.425661 195.923861 306.26028 198.737339 306.26028 201.67056 
C 306.26028 204.603781 307.425661 207.417259 309.499761 209.491359 
C 311.573861 211.565459 314.387339 212.73084 317.32056 212.73084 
z
" style="fill:#440154;"/>
    <path clip-path="url(#pb72919fb73)" d="M 295.2 234.8514 
C 298.133221 234.8514 300.946699 233.686019 303.020799 231.611919 
C 305.094899 229.537819 306.26028 226.724341 306.26028 223.79112 
C 306.26028 220.857899 305.094899 218.044421 303.020799 215.970321 
C 300.946699 213.896221 298.133221 212.73084 295.2 212.73084 
C 292.266779 212.73084 289.453301 213.896221 287.379201 215.970321 
C 285.305101 218.044421 284.13972 220.857899 284.13972 223.79112 
C 284.13972 226.724341 285.305101 229.537819 287.379201 231.611919 
C 289.453301 233.686019 292.266779 234.8514 295.2 234.8514 
z
" style="fill:#440154;"/>
    <path clip-path="url(#pb72919fb73)" d="M 317.32056 256.97196 
C 320.253781 256.97196 323.067259 255.806579 325.141359 253.732479 
C 327.215459 251.658379 328.38084 248.844901 328.38084 245.91168 
C 328.38084 242.978459 327.215459 240.164981 325.141359 238.090881 
C 323.067259 236.016781 320.253781 234.8514 317.32056 234.8514 
C 314.387339 234.8514 311.573861 236.016781 309.499761 238.090881 
C 307.425661 240.164981 306.26028 242.978459 306.26028 245.91168 
C 306.26028 248.844901 307.425661 251.658379 309.499761 253.732479 
C 311.573861 255.806579 314.387339 256.97196 317.32056 256.97196 
z
" style="fill:#440154;"/>
    <path clip-path="url(#pb72919fb73)" d="M 295.2 279.09252 
C 298.133221 279.09252 300.946699 277.927139 303.020799 275.853039 
C 305.094899 273.778939 306.26028 270.965461 306.26028 268.03224 
C 306.26028 265.099019 305.094899 262.285541 303.020799 260.211441 
C 300.946699 258.137341 298.133221 256.97196 295.2 256.97196 
C 292.266779 256.97196 289.453301 258.137341 287.379201 260.211441 
C 285.305101 262.285541 284.13972 265.099019 284.13972 268.03224 
C 284.13972 270.965461 285.305101 273.778939 287.379201 275.853039 
C 289.453301 277.927139 292.266779 279.09252 295.2 279.09252 
z
" style="fill:#440154;"/>
    <path clip-path="url(#pb72919fb73)" d="M 273.07944 256.97196 
C 276.012661 256.97196 278.826139 255.806579 280.900239 253.732479 
C 282.974339 251.658379 284.13972 248.844901 284.13972 245.91168 
C 284.13972 242.978459 282.974339 240.164981 280.900239 238.090881 
C 278.826139 236.016781 276.012661 234.8514 273.07944 234.8514 
C 270.146219 234.8514 267.332741 236.016781 265.258641 238.090881 
C 263.184541 240.164981 262.01916 242.978459 262.01916 245.91168 
C 262.01916 248.844901 263.184541 251.658379 265.258641 253.732479 
C 267.332741 255.806579 270.146219 256.97196 273.07944 256.97196 
z
" style="fill:#440154;"/>
    <path clip-path="url(#pb72919fb73)" d="M 250.95888 190.61028 
C 253.892101 190.61028 256.705579 189.444899 258.779679 187.370799 
C 260.853779 185.296699 262.01916 182.483221 262.01916 179.55 
C 262.01916 176.616779 260.853779 173.803301 258.779679 171.729201 
C 256.705579 169.655101 253.892101 168.48972 250.95888 168.48972 
C 248.025659 168.48972 245.212181 169.655101 243.138081 171.729201 
C 241.063981 173.803301 239.8986 176.616779 239.8986 179.55 
C 239.8986 182.483221 241.063981 185.296699 243.138081 187.370799 
C 245.212181 189.444899 248.025659 190.61028 250.95888 190.61028 
z
" style="fill:#440154;"/>
    <path clip-path="url(#pb72919fb73)" d="M 273.07944 212.73084 
C 276.012661 212.73084 278.826139 211.565459 280.900239 209.491359 
C 282.974339 207.417259 284.13972 204.603781 284.13972 201.67056 
C 284.13972 198.737339 282.974339 195.923861 280.900239 193.849761 
C 278.826139 191.775661 276.012661 190.61028 273.07944 190.61028 
C 270.146219 190.61028 267.332741 191.775661 265.258641 193.849761 
C 263.184541 195.923861 262.01916 198.737339 262.01916 201.67056 
C 262.01916 204.603781 263.184541 207.417259 265.258641 209.491359 
C 267.332741 211.565459 270.146219 212.73084 273.07944 212.73084 
z
" style="fill:#440154;"/>
    <path clip-path="url(#pb72919fb73)" d="M 250.95888 234.8514 
C 253.892101 234.8514 256.705579 233.686019 258.779679 231.611919 
C 260.853779 229.537819 262.01916 226.724341 262.01916 223.79112 
C 262.01916 220.857899 260.853779 218.044421 258.779679 215.970321 
C 256.705579 213.896221 253.892101 212.73084 250.95888 212.73084 
C 248.025659 212.73084 245.212181 213.896221 243.138081 215.970321 
C 241.063981 218.044421 239.8986 220.857899 239.8986 223.79112 
C 239.8986 226.724341 241.063981 229.537819 243.138081 231.611919 
C 245.212181 233.686019 248.025659 234.8514 250.95888 234.8514 
z
" style="fill:#440154;"/>
    <path clip-path="url(#pb72919fb73)" d="M 228.83832 212.73084 
C 231.771541 212.73084 234.585019 211.565459 236.659119 209.491359 
C 238.733219 207.417259 239.8986 204.603781 239.8986 201.67056 
C 239.8986 198.737339 238.733219 195.923861 236.659119 193.849761 
C 234.585019 191.775661 231.771541 190.61028 228.83832 190.61028 
C 225.905099 190.61028 223.091621 191.775661 221.017521 193.849761 
C 218.943421 195.923861 217.77804 198.737339 217.77804 201.67056 
C 217.77804 204.603781 218.943421 207.417259 221.017521 209.491359 
C 223.091621 211.565459 225.905099 212.73084 228.83832 212.73084 
z
" style="fill:#440154;"/>
    <path clip-path="url(#pb72919fb73)" d="M 383.68224 234.8514 
C 386.615461 234.8514 389.428939 233.686019 391.503039 231.611919 
C 393.577139 229.537819 394.74252 226.724341 394.74252 223.79112 
C 394.74252 220.857899 393.577139 218.044421 391.503039 215.970321 
C 389.428939 213.896221 386.615461 212.73084 383.68224 212.73084 
C 380.749019 212.73084 377.935541 213.896221 375.861441 215.970321 
C 373.787341 218.044421 372.62196 220.857899 372.62196 223.79112 
C 372.62196 226.724341 373.787341 229.537819 375.861441 231.611919 
C 377.935541 233.686019 380.749019 234.8514 383.68224 234.8514 
z
" style="fill:#440154;"/>
    <path clip-path="url(#pb72919fb73)" d="M 405.8028 256.97196 
C 408.736021 256.97196 411.549499 255.806579 413.623599 253.732479 
C 415.697699 251.658379 416.86308 248.844901 416.86308 245.91168 
C 416.86308 242.978459 415.697699 240.164981 413.623599 238.090881 
C 411.549499 236.016781 408.736021 234.8514 405.8028 234.8514 
C 402.869579 234.8514 400.056101 236.016781 397.982001 238.090881 
C 395.907901 240.164981 394.74252 242.978459 394.74252 245.91168 
C 394.74252 248.844901 395.907901 251.658379 397.982001 253.732479 
C 400.056101 255.806579 402.869579 256.97196 405.8028 256.97196 
z
" style="fill:#440154;"/>
    <path clip-path="url(#pb72919fb73)" d="M 383.68224 279.09252 
C 386.615461 279.09252 389.428939 277.927139 391.503039 275.853039 
C 393.577139 273.778939 394.74252 270.965461 394.74252 268.03224 
C 394.74252 265.099019 393.577139 262.285541 391.503039 260.211441 
C 389.428939 258.137341 386.615461 256.97196 383.68224 256.97196 
C 380.749019 256.97196 377.935541 258.137341 375.861441 260.211441 
C 373.787341 262.285541 372.62196 265.099019 372.62196 268.03224 
C 372.62196 270.965461 373.787341 273.778939 375.861441 275.853039 
C 377.935541 277.927139 380.749019 279.09252 383.68224 279.09252 
z
" style="fill:#440154;"/>
    <path clip-path="url(#pb72919fb73)" d="M 361.56168 256.97196 
C 364.494901 256.97196 367.308379 255.806579 369.382479 253.732479 
C 371.456579 251.658379 372.62196 248.844901 372.62196 245.91168 
C 372.62196 242.978459 371.456579 240.164981 369.382479 238.090881 
C 367.308379 236.016781 364.494901 234.8514 361.56168 234.8514 
C 358.628459 234.8514 355.814981 236.016781 353.740881 238.090881 
C 351.666781 240.164981 350.5014 242.978459 350.5014 245.91168 
C 350.5014 248.844901 351.666781 251.658379 353.740881 253.732479 
C 355.814981 255.806579 358.628459 256.97196 361.56168 256.97196 
z
" style="fill:#440154;"/>
    <path clip-path="url(#pb72919fb73)" d="M 427.92336 279.09252 
C 430.856581 279.09252 433.670059 277.927139 435.744159 275.853039 
C 437.818259 273.778939 438.98364 270.965461 438.98364 268.03224 
C 438.98364 265.099019 437.818259 262.285541 435.744159 260.211441 
C 433.670059 258.137341 430.856581 256.97196 427.92336 256.97196 
C 424.990139 256.97196 422.176661 258.137341 420.102561 260.211441 
C 418.028461 262.285541 416.86308 265.099019 416.86308 268.03224 
C 416.86308 270.965461 418.028461 273.778939 420.102561 275.853039 
C 422.176661 277.927139 424.990139 279.09252 427.92336 279.09252 
z
" style="fill:#440154;"/>
    <path clip-path="url(#pb72919fb73)" d="M 450.04392 301.21308 
C 452.977141 301.21308 455.790619 300.047699 457.864719 297.973599 
C 459.938819 295.899499 461.1042 293.086021 461.1042 290.1528 
C 461.1042 287.219579 459.938819 284.406101 457.864719 282.332001 
C 455.790619 280.257901 452.977141 279.09252 450.04392 279.09252 
C 447.110699 279.09252 444.297221 280.257901 442.223121 282.332001 
C 440.149021 284.406101 438.98364 287.219579 438.98364 290.1528 
C 438.98364 293.086021 440.149021 295.899499 442.223121 297.973599 
C 444.297221 300.047699 447.110699 301.21308 450.04392 301.21308 
z
" style="fill:#440154;"/>
    <path clip-path="url(#pb72919fb73)" d="M 427.92336 323.33364 
C 430.856581 323.33364 433.670059 322.168259 435.744159 320.094159 
C 437.818259 318.020059 438.98364 315.206581 438.98364 312.27336 
C 438.98364 309.340139 437.818259 306.526661 435.744159 304.452561 
C 433.670059 302.378461 430.856581 301.21308 427.92336 301.21308 
C 424.990139 301.21308 422.176661 302.378461 420.102561 304.452561 
C 418.028461 306.526661 416.86308 309.340139 416.86308 312.27336 
C 416.86308 315.206581 418.028461 318.020059 420.102561 320.094159 
C 422.176661 322.168259 424.990139 323.33364 427.92336 323.33364 
z
" style="fill:#440154;"/>
    <path clip-path="url(#pb72919fb73)" d="M 405.8028 301.21308 
C 408.736021 301.21308 411.549499 300.047699 413.623599 297.973599 
C 415.697699 295.899499 416.86308 293.086021 416.86308 290.1528 
C 416.86308 287.219579 415.697699 284.406101 413.623599 282.332001 
C 411.549499 280.257901 408.736021 279.09252 405.8028 279.09252 
C 402.869579 279.09252 400.056101 280.257901 397.982001 282.332001 
C 395.907901 284.406101 394.74252 287.219579 394.74252 290.1528 
C 394.74252 293.086021 395.907901 295.899499 397.982001 297.973599 
C 400.056101 300.047699 402.869579 301.21308 405.8028 301.21308 
z
" style="fill:#440154;"/>
    <path clip-path="url(#pb72919fb73)" d="M 383.68224 323.33364 
C 386.615461 323.33364 389.428939 322.168259 391.503039 320.094159 
C 393.577139 318.020059 394.74252 315.206581 394.74252 312.27336 
C 394.74252 309.340139 393.577139 306.526661 391.503039 304.452561 
C 389.428939 302.378461 386.615461 301.21308 383.68224 301.21308 
C 380.749019 301.21308 377.935541 302.378461 375.861441 304.452561 
C 373.787341 306.526661 372.62196 309.340139 372.62196 312.27336 
C 372.62196 315.206581 373.787341 318.020059 375.861441 320.094159 
C 377.935541 322.168259 380.749019 323.33364 383.68224 323.33364 
z
" style="fill:#440154;"/>
    <path clip-path="url(#pb72919fb73)" d="M 405.8028 345.4542 
C 408.736021 345.4542 411.549499 344.288819 413.623599 342.214719 
C 415.697699 340.140619 416.86308 337.327141 416.86308 334.39392 
C 416.86308 331.460699 415.697699 328.647221 413.623599 326.573121 
C 411.549499 324.499021 408.736021 323.33364 405.8028 323.33364 
C 402.869579 323.33364 400.056101 324.499021 397.982001 326.573121 
C 395.907901 328.647221 394.74252 331.460699 394.74252 334.39392 
C 394.74252 337.327141 395.907901 340.140619 397.982001 342.214719 
C 400.056101 344.288819 402.869579 345.4542 405.8028 345.4542 
z
" style="fill:#440154;"/>
    <path clip-path="url(#pb72919fb73)" d="M 383.68224 367.57476 
C 386.615461 367.57476 389.428939 366.409379 391.503039 364.335279 
C 393.577139 362.261179 394.74252 359.447701 394.74252 356.51448 
C 394.74252 353.581259 393.577139 350.767781 391.503039 348.693681 
C 389.428939 346.619581 386.615461 345.4542 383.68224 345.4542 
C 380.749019 345.4542 377.935541 346.619581 375.861441 348.693681 
C 373.787341 350.767781 372.62196 353.581259 372.62196 356.51448 
C 372.62196 359.447701 373.787341 362.261179 375.861441 364.335279 
C 377.935541 366.409379 380.749019 367.57476 383.68224 367.57476 
z
" style="fill:#440154;"/>
    <path clip-path="url(#pb72919fb73)" d="M 361.56168 345.4542 
C 364.494901 345.4542 367.308379 344.288819 369.382479 342.214719 
C 371.456579 340.140619 372.62196 337.327141 372.62196 334.39392 
C 372.62196 331.460699 371.456579 328.647221 369.382479 326.573121 
C 367.308379 324.499021 364.494901 323.33364 361.56168 323.33364 
C 358.628459 323.33364 355.814981 324.499021 353.740881 326.573121 
C 351.666781 328.647221 350.5014 331.460699 350.5014 334.39392 
C 350.5014 337.327141 351.666781 340.140619 353.740881 342.214719 
C 355.814981 344.288819 358.628459 345.4542 361.56168 345.4542 
z
" style="fill:#440154;"/>
    <path clip-path="url(#pb72919fb73)" d="M 339.44112 279.09252 
C 342.374341 279.09252 345.187819 277.927139 347.261919 275.853039 
C 349.336019 273.778939 350.5014 270.965461 350.5014 268.03224 
C 350.5014 265.099019 349.336019 262.285541 347.261919 260.211441 
C 345.187819 258.137341 342.374341 256.97196 339.44112 256.97196 
C 336.507899 256.97196 333.694421 258.137341 331.620321 260.211441 
C 329.546221 262.285541 328.38084 265.099019 328.38084 268.03224 
C 328.38084 270.965461 329.546221 273.778939 331.620321 275.853039 
C 333.694421 277.927139 336.507899 279.09252 339.44112 279.09252 
z
" style="fill:#440154;"/>
    <path clip-path="url(#pb72919fb73)" d="M 361.56168 301.21308 
C 364.494901 301.21308 367.308379 300.047699 369.382479 297.973599 
C 371.456579 295.899499 372.62196 293.086021 372.62196 290.1528 
C 372.62196 287.219579 371.456579 284.406101 369.382479 282.332001 
C 367.308379 280.257901 364.494901 279.09252 361.56168 279.09252 
C 358.628459 279.09252 355.814981 280.257901 353.740881 282.332001 
C 351.666781 284.406101 350.5014 287.219579 350.5014 290.1528 
C 350.5014 293.086021 351.666781 295.899499 353.740881 297.973599 
C 355.814981 300.047699 358.628459 301.21308 361.56168 301.21308 
z
" style="fill:#440154;"/>
    <path clip-path="url(#pb72919fb73)" d="M 339.44112 323.33364 
C 342.374341 323.33364 345.187819 322.168259 347.261919 320.094159 
C 349.336019 318.020059 350.5014 315.206581 350.5014 312.27336 
C 350.5014 309.340139 349.336019 306.526661 347.261919 304.452561 
C 345.187819 302.378461 342.374341 301.21308 339.44112 301.21308 
C 336.507899 301.21308 333.694421 302.378461 331.620321 304.452561 
C 329.546221 306.526661 328.38084 309.340139 328.38084 312.27336 
C 328.38084 315.206581 329.546221 318.020059 331.620321 320.094159 
C 333.694421 322.168259 336.507899 323.33364 339.44112 323.33364 
z
" style="fill:#440154;"/>
    <path clip-path="url(#pb72919fb73)" d="M 317.32056 301.21308 
C 320.253781 301.21308 323.067259 300.047699 325.141359 297.973599 
C 327.215459 295.899499 328.38084 293.086021 328.38084 290.1528 
C 328.38084 287.219579 327.215459 284.406101 325.141359 282.332001 
C 323.067259 280.257901 320.253781 279.09252 317.32056 279.09252 
C 314.387339 279.09252 311.573861 280.257901 309.499761 282.332001 
C 307.425661 284.406101 306.26028 287.219579 306.26028 290.1528 
C 306.26028 293.086021 307.425661 295.899499 309.499761 297.973599 
C 311.573861 300.047699 314.387339 301.21308 317.32056 301.21308 
z
" style="fill:#440154;"/>
    <path clip-path="url(#pb72919fb73)" d="M 295.2 323.33364 
C 298.133221 323.33364 300.946699 322.168259 303.020799 320.094159 
C 305.094899 318.020059 306.26028 315.206581 306.26028 312.27336 
C 306.26028 309.340139 305.094899 306.526661 303.020799 304.452561 
C 300.946699 302.378461 298.133221 301.21308 295.2 301.21308 
C 292.266779 301.21308 289.453301 302.378461 287.379201 304.452561 
C 285.305101 306.526661 284.13972 309.340139 284.13972 312.27336 
C 284.13972 315.206581 285.305101 318.020059 287.379201 320.094159 
C 289.453301 322.168259 292.266779 323.33364 295.2 323.33364 
z
" style="fill:#440154;"/>
    <path clip-path="url(#pb72919fb73)" d="M 317.32056 345.4542 
C 320.253781 345.4542 323.067259 344.288819 325.141359 342.214719 
C 327.215459 340.140619 328.38084 337.327141 328.38084 334.39392 
C 328.38084 331.460699 327.215459 328.647221 325.141359 326.573121 
C 323.067259 324.499021 320.253781 323.33364 317.32056 323.33364 
C 314.387339 323.33364 311.573861 324.499021 309.499761 326.573121 
C 307.425661 328.647221 306.26028 331.460699 306.26028 334.39392 
C 306.26028 337.327141 307.425661 340.140619 309.499761 342.214719 
C 311.573861 344.288819 314.387339 345.4542 317.32056 345.4542 
z
" style="fill:#440154;"/>
    <path clip-path="url(#pb72919fb73)" d="M 295.2 367.57476 
C 298.133221 367.57476 300.946699 366.409379 303.020799 364.335279 
C 305.094899 362.261179 306.26028 359.447701 306.26028 356.51448 
C 306.26028 353.581259 305.094899 350.767781 303.020799 348.693681 
C 300.946699 346.619581 298.133221 345.4542 295.2 345.4542 
C 292.266779 345.4542 289.453301 346.619581 287.379201 348.693681 
C 285.305101 350.767781 284.13972 353.581259 284.13972 356.51448 
C 284.13972 359.447701 285.305101 362.261179 287.379201 364.335279 
C 289.453301 366.409379 292.266779 367.57476 295.2 367.57476 
z
" style="fill:#440154;"/>
    <path clip-path="url(#pb72919fb73)" d="M 273.07944 345.4542 
C 276.012661 345.4542 278.826139 344.288819 280.900239 342.214719 
C 282.974339 340.140619 284.13972 337.327141 284.13972 334.39392 
C 284.13972 331.460699 282.974339 328.647221 280.900239 326.573121 
C 278.826139 324.499021 276.012661 323.33364 273.07944 323.33364 
C 270.146219 323.33364 267.332741 324.499021 265.258641 326.573121 
C 263.184541 328.647221 262.01916 331.460699 262.01916 334.39392 
C 262.01916 337.327141 263.184541 340.140619 265.258641 342.214719 
C 267.332741 344.288819 270.146219 345.4542 273.07944 345.4542 
z
" style="fill:#440154;"/>
    <path clip-path="url(#pb72919fb73)" d="M 339.44112 367.57476 
C 342.374341 367.57476 345.187819 366.409379 347.261919 364.335279 
C 349.336019 362.261179 350.5014 359.447701 350.5014 356.51448 
C 350.5014 353.581259 349.336019 350.767781 347.261919 348.693681 
C 345.187819 346.619581 342.374341 345.4542 339.44112 345.4542 
C 336.507899 345.4542 333.694421 346.619581 331.620321 348.693681 
C 329.546221 350.767781 328.38084 353.581259 328.38084 356.51448 
C 328.38084 359.447701 329.546221 362.261179 331.620321 364.335279 
C 333.694421 366.409379 336.507899 367.57476 339.44112 367.57476 
z
" style="fill:#440154;"/>
    <path clip-path="url(#pb72919fb73)" d="M 361.56168 389.69532 
C 364.494901 389.69532 367.308379 388.529939 369.382479 386.455839 
C 371.456579 384.381739 372.62196 381.568261 372.62196 378.63504 
C 372.62196 375.701819 371.456579 372.888341 369.382479 370.814241 
C 367.308379 368.740141 364.494901 367.57476 361.56168 367.57476 
C 358.628459 367.57476 355.814981 368.740141 353.740881 370.814241 
C 351.666781 372.888341 350.5014 375.701819 350.5014 378.63504 
C 350.5014 381.568261 351.666781 384.381739 353.740881 386.455839 
C 355.814981 388.529939 358.628459 389.69532 361.56168 389.69532 
z
" style="fill:#440154;"/>
    <path clip-path="url(#pb72919fb73)" d="M 339.44112 411.81588 
C 342.374341 411.81588 345.187819 410.650499 347.261919 408.576399 
C 349.336019 406.502299 350.5014 403.688821 350.5014 400.7556 
C 350.5014 397.822379 349.336019 395.008901 347.261919 392.934801 
C 345.187819 390.860701 342.374341 389.69532 339.44112 389.69532 
C 336.507899 389.69532 333.694421 390.860701 331.620321 392.934801 
C 329.546221 395.008901 328.38084 397.822379 328.38084 400.7556 
C 328.38084 403.688821 329.546221 406.502299 331.620321 408.576399 
C 333.694421 410.650499 336.507899 411.81588 339.44112 411.81588 
z
" style="fill:#440154;"/>
    <path clip-path="url(#pb72919fb73)" d="M 317.32056 389.69532 
C 320.253781 389.69532 323.067259 388.529939 325.141359 386.455839 
C 327.215459 384.381739 328.38084 381.568261 328.38084 378.63504 
C 328.38084 375.701819 327.215459 372.888341 325.141359 370.814241 
C 323.067259 368.740141 320.253781 367.57476 317.32056 367.57476 
C 314.387339 367.57476 311.573861 368.740141 309.499761 370.814241 
C 307.425661 372.888341 306.26028 375.701819 306.26028 378.63504 
C 306.26028 381.568261 307.425661 384.381739 309.499761 386.455839 
C 311.573861 388.529939 314.387339 389.69532 317.32056 389.69532 
z
" style="fill:#440154;"/>
    <path clip-path="url(#pb72919fb73)" d="M 295.2 411.81588 
C 298.133221 411.81588 300.946699 410.650499 303.020799 408.576399 
C 305.094899 406.502299 306.26028 403.688821 306.26028 400.7556 
C 306.26028 397.822379 305.094899 395.008901 303.020799 392.934801 
C 300.946699 390.860701 298.133221 389.69532 295.2 389.69532 
C 292.266779 389.69532 289.453301 390.860701 287.379201 392.934801 
C 285.305101 395.008901 284.13972 397.822379 284.13972 400.7556 
C 284.13972 403.688821 285.305101 406.502299 287.379201 408.576399 
C 289.453301 410.650499 292.266779 411.81588 295.2 411.81588 
z
" style="fill:#440154;"/>
    <path clip-path="url(#pb72919fb73)" d="M 317.32056 433.93644 
C 320.253781 433.93644 323.067259 432.771059 325.141359 430.696959 
C 327.215459 428.622859 328.38084 425.809381 328.38084 422.87616 
C 328.38084 419.942939 327.215459 417.129461 325.141359 415.055361 
C 323.067259 412.981261 320.253781 411.81588 317.32056 411.81588 
C 314.387339 411.81588 311.573861 412.981261 309.499761 415.055361 
C 307.425661 417.129461 306.26028 419.942939 306.26028 422.87616 
C 306.26028 425.809381 307.425661 428.622859 309.499761 430.696959 
C 311.573861 432.771059 314.387339 433.93644 317.32056 433.93644 
z
" style="fill:#440154;"/>
    <path clip-path="url(#pb72919fb73)" d="M 295.2 456.057 
C 298.133221 456.057 300.946699 454.891619 303.020799 452.817519 
C 305.094899 450.743419 306.26028 447.929941 306.26028 444.99672 
C 306.26028 442.063499 305.094899 439.250021 303.020799 437.175921 
C 300.946699 435.101821 298.133221 433.93644 295.2 433.93644 
C 292.266779 433.93644 289.453301 435.101821 287.379201 437.175921 
C 285.305101 439.250021 284.13972 442.063499 284.13972 444.99672 
C 284.13972 447.929941 285.305101 450.743419 287.379201 452.817519 
C 289.453301 454.891619 292.266779 456.057 295.2 456.057 
z
" style="fill:#440154;"/>
    <path clip-path="url(#pb72919fb73)" d="M 273.07944 433.93644 
C 276.012661 433.93644 278.826139 432.771059 280.900239 430.696959 
C 282.974339 428.622859 284.13972 425.809381 284.13972 422.87616 
C 284.13972 419.942939 282.974339 417.129461 280.900239 415.055361 
C 278.826139 412.981261 276.012661 411.81588 273.07944 411.81588 
C 270.146219 411.81588 267.332741 412.981261 265.258641 415.055361 
C 263.184541 417.129461 262.01916 419.942939 262.01916 422.87616 
C 262.01916 425.809381 263.184541 428.622859 265.258641 430.696959 
C 267.332741 432.771059 270.146219 433.93644 273.07944 433.93644 
z
" style="fill:#440154;"/>
    <path clip-path="url(#pb72919fb73)" d="M 250.95888 367.57476 
C 253.892101 367.57476 256.705579 366.409379 258.779679 364.335279 
C 260.853779 362.261179 262.01916 359.447701 262.01916 356.51448 
C 262.01916 353.581259 260.853779 350.767781 258.779679 348.693681 
C 256.705579 346.619581 253.892101 345.4542 250.95888 345.4542 
C 248.025659 345.4542 245.212181 346.619581 243.138081 348.693681 
C 241.063981 350.767781 239.8986 353.581259 239.8986 356.51448 
C 239.8986 359.447701 241.063981 362.261179 243.138081 364.335279 
C 245.212181 366.409379 248.025659 367.57476 250.95888 367.57476 
z
" style="fill:#440154;"/>
    <path clip-path="url(#pb72919fb73)" d="M 273.07944 389.69532 
C 276.012661 389.69532 278.826139 388.529939 280.900239 386.455839 
C 282.974339 384.381739 284.13972 381.568261 284.13972 378.63504 
C 284.13972 375.701819 282.974339 372.888341 280.900239 370.814241 
C 278.826139 368.740141 276.012661 367.57476 273.07944 367.57476 
C 270.146219 367.57476 267.332741 368.740141 265.258641 370.814241 
C 263.184541 372.888341 262.01916 375.701819 262.01916 378.63504 
C 262.01916 381.568261 263.184541 384.381739 265.258641 386.455839 
C 267.332741 388.529939 270.146219 389.69532 273.07944 389.69532 
z
" style="fill:#440154;"/>
    <path clip-path="url(#pb72919fb73)" d="M 250.95888 411.81588 
C 253.892101 411.81588 256.705579 410.650499 258.779679 408.576399 
C 260.853779 406.502299 262.01916 403.688821 262.01916 400.7556 
C 262.01916 397.822379 260.853779 395.008901 258.779679 392.934801 
C 256.705579 390.860701 253.892101 389.69532 250.95888 389.69532 
C 248.025659 389.69532 245.212181 390.860701 243.138081 392.934801 
C 241.063981 395.008901 239.8986 397.822379 239.8986 400.7556 
C 239.8986 403.688821 241.063981 406.502299 243.138081 408.576399 
C 245.212181 410.650499 248.025659 411.81588 250.95888 411.81588 
z
" style="fill:#440154;"/>
    <path clip-path="url(#pb72919fb73)" d="M 228.83832 389.69532 
C 231.771541 389.69532 234.585019 388.529939 236.659119 386.455839 
C 238.733219 384.381739 239.8986 381.568261 239.8986 378.63504 
C 239.8986 375.701819 238.733219 372.888341 236.659119 370.814241 
C 234.585019 368.740141 231.771541 367.57476 228.83832 367.57476 
C 225.905099 367.57476 223.091621 368.740141 221.017521 370.814241 
C 218.943421 372.888341 217.77804 375.701819 217.77804 378.63504 
C 217.77804 381.568261 218.943421 384.381739 221.017521 386.455839 
C 223.091621 388.529939 225.905099 389.69532 228.83832 389.69532 
z
" style="fill:#440154;"/>
    <path clip-path="url(#pb72919fb73)" d="M 206.71776 234.8514 
C 209.650981 234.8514 212.464459 233.686019 214.538559 231.611919 
C 216.612659 229.537819 217.77804 226.724341 217.77804 223.79112 
C 217.77804 220.857899 216.612659 218.044421 214.538559 215.970321 
C 212.464459 213.896221 209.650981 212.73084 206.71776 212.73084 
C 203.784539 212.73084 200.971061 213.896221 198.896961 215.970321 
C 196.822861 218.044421 195.65748 220.857899 195.65748 223.79112 
C 195.65748 226.724341 196.822861 229.537819 198.896961 231.611919 
C 200.971061 233.686019 203.784539 234.8514 206.71776 234.8514 
z
" style="fill:#440154;"/>
    <path clip-path="url(#pb72919fb73)" d="M 228.83832 256.97196 
C 231.771541 256.97196 234.585019 255.806579 236.659119 253.732479 
C 238.733219 251.658379 239.8986 248.844901 239.8986 245.91168 
C 239.8986 242.978459 238.733219 240.164981 236.659119 238.090881 
C 234.585019 236.016781 231.771541 234.8514 228.83832 234.8514 
C 225.905099 234.8514 223.091621 236.016781 221.017521 238.090881 
C 218.943421 240.164981 217.77804 242.978459 217.77804 245.91168 
C 217.77804 248.844901 218.943421 251.658379 221.017521 253.732479 
C 223.091621 255.806579 225.905099 256.97196 228.83832 256.97196 
z
" style="fill:#440154;"/>
    <path clip-path="url(#pb72919fb73)" d="M 206.71776 279.09252 
C 209.650981 279.09252 212.464459 277.927139 214.538559 275.853039 
C 216.612659 273.778939 217.77804 270.965461 217.77804 268.03224 
C 217.77804 265.099019 216.612659 262.285541 214.538559 260.211441 
C 212.464459 258.137341 209.650981 256.97196 206.71776 256.97196 
C 203.784539 256.97196 200.971061 258.137341 198.896961 260.211441 
C 196.822861 262.285541 195.65748 265.099019 195.65748 268.03224 
C 195.65748 270.965461 196.822861 273.778939 198.896961 275.853039 
C 200.971061 277.927139 203.784539 279.09252 206.71776 279.09252 
z
" style="fill:#440154;"/>
    <path clip-path="url(#pb72919fb73)" d="M 184.5972 256.97196 
C 187.530421 256.97196 190.343899 255.806579 192.417999 253.732479 
C 194.492099 251.658379 195.65748 248.844901 195.65748 245.91168 
C 195.65748 242.978459 194.492099 240.164981 192.417999 238.090881 
C 190.343899 236.016781 187.530421 234.8514 184.5972 234.8514 
C 181.663979 234.8514 178.850501 236.016781 176.776401 238.090881 
C 174.702301 240.164981 173.53692 242.978459 173.53692 245.91168 
C 173.53692 248.844901 174.702301 251.658379 176.776401 253.732479 
C 178.850501 255.806579 181.663979 256.97196 184.5972 256.97196 
z
" style="fill:#440154;"/>
    <path clip-path="url(#pb72919fb73)" d="M 250.95888 279.09252 
C 253.892101 279.09252 256.705579 277.927139 258.779679 275.853039 
C 260.853779 273.778939 262.01916 270.965461 262.01916 268.03224 
C 262.01916 265.099019 260.853779 262.285541 258.779679 260.211441 
C 256.705579 258.137341 253.892101 256.97196 250.95888 256.97196 
C 248.025659 256.97196 245.212181 258.137341 243.138081 260.211441 
C 241.063981 262.285541 239.8986 265.099019 239.8986 268.03224 
C 239.8986 270.965461 241.063981 273.778939 243.138081 275.853039 
C 245.212181 277.927139 248.025659 279.09252 250.95888 279.09252 
z
" style="fill:#440154;"/>
    <path clip-path="url(#pb72919fb73)" d="M 273.07944 301.21308 
C 276.012661 301.21308 278.826139 300.047699 280.900239 297.973599 
C 282.974339 295.899499 284.13972 293.086021 284.13972 290.1528 
C 284.13972 287.219579 282.974339 284.406101 280.900239 282.332001 
C 278.826139 280.257901 276.012661 279.09252 273.07944 279.09252 
C 270.146219 279.09252 267.332741 280.257901 265.258641 282.332001 
C 263.184541 284.406101 262.01916 287.219579 262.01916 290.1528 
C 262.01916 293.086021 263.184541 295.899499 265.258641 297.973599 
C 267.332741 300.047699 270.146219 301.21308 273.07944 301.21308 
z
" style="fill:#440154;"/>
    <path clip-path="url(#pb72919fb73)" d="M 250.95888 323.33364 
C 253.892101 323.33364 256.705579 322.168259 258.779679 320.094159 
C 260.853779 318.020059 262.01916 315.206581 262.01916 312.27336 
C 262.01916 309.340139 260.853779 306.526661 258.779679 304.452561 
C 256.705579 302.378461 253.892101 301.21308 250.95888 301.21308 
C 248.025659 301.21308 245.212181 302.378461 243.138081 304.452561 
C 241.063981 306.526661 239.8986 309.340139 239.8986 312.27336 
C 239.8986 315.206581 241.063981 318.020059 243.138081 320.094159 
C 245.212181 322.168259 248.025659 323.33364 250.95888 323.33364 
z
" style="fill:#440154;"/>
    <path clip-path="url(#pb72919fb73)" d="M 228.83832 301.21308 
C 231.771541 301.21308 234.585019 300.047699 236.659119 297.973599 
C 238.733219 295.899499 239.8986 293.086021 239.8986 290.1528 
C 239.8986 287.219579 238.733219 284.406101 236.659119 282.332001 
C 234.585019 280.257901 231.771541 279.09252 228.83832 279.09252 
C 225.905099 279.09252 223.091621 280.257901 221.017521 282.332001 
C 218.943421 284.406101 217.77804 287.219579 217.77804 290.1528 
C 217.77804 293.086021 218.943421 295.899499 221.017521 297.973599 
C 223.091621 300.047699 225.905099 301.21308 228.83832 301.21308 
z
" style="fill:#440154;"/>
    <path clip-path="url(#pb72919fb73)" d="M 206.71776 323.33364 
C 209.650981 323.33364 212.464459 322.168259 214.538559 320.094159 
C 216.612659 318.020059 217.77804 315.206581 217.77804 312.27336 
C 217.77804 309.340139 216.612659 306.526661 214.538559 304.452561 
C 212.464459 302.378461 209.650981 301.21308 206.71776 301.21308 
C 203.784539 301.21308 200.971061 302.378461 198.896961 304.452561 
C 196.822861 306.526661 195.65748 309.340139 195.65748 312.27336 
C 195.65748 315.206581 196.822861 318.020059 198.896961 320.094159 
C 200.971061 322.168259 203.784539 323.33364 206.71776 323.33364 
z
" style="fill:#440154;"/>
    <path clip-path="url(#pb72919fb73)" d="M 228.83832 345.4542 
C 231.771541 345.4542 234.585019 344.288819 236.659119 342.214719 
C 238.733219 340.140619 239.8986 337.327141 239.8986 334.39392 
C 239.8986 331.460699 238.733219 328.647221 236.659119 326.573121 
C 234.585019 324.499021 231.771541 323.33364 228.83832 323.33364 
C 225.905099 323.33364 223.091621 324.499021 221.017521 326.573121 
C 218.943421 328.647221 217.77804 331.460699 217.77804 334.39392 
C 217.77804 337.327141 218.943421 340.140619 221.017521 342.214719 
C 223.091621 344.288819 225.905099 345.4542 228.83832 345.4542 
z
" style="fill:#440154;"/>
    <path clip-path="url(#pb72919fb73)" d="M 206.71776 367.57476 
C 209.650981 367.57476 212.464459 366.409379 214.538559 364.335279 
C 216.612659 362.261179 217.77804 359.447701 217.77804 356.51448 
C 217.77804 353.581259 216.612659 350.767781 214.538559 348.693681 
C 212.464459 346.619581 209.650981 345.4542 206.71776 345.4542 
C 203.784539 345.4542 200.971061 346.619581 198.896961 348.693681 
C 196.822861 350.767781 195.65748 353.581259 195.65748 356.51448 
C 195.65748 359.447701 196.822861 362.261179 198.896961 364.335279 
C 200.971061 366.409379 203.784539 367.57476 206.71776 367.57476 
z
" style="fill:#440154;"/>
    <path clip-path="url(#pb72919fb73)" d="M 184.5972 345.4542 
C 187.530421 345.4542 190.343899 344.288819 192.417999 342.214719 
C 194.492099 340.140619 195.65748 337.327141 195.65748 334.39392 
C 195.65748 331.460699 194.492099 328.647221 192.417999 326.573121 
C 190.343899 324.499021 187.530421 323.33364 184.5972 323.33364 
C 181.663979 323.33364 178.850501 324.499021 176.776401 326.573121 
C 174.702301 328.647221 173.53692 331.460699 173.53692 334.39392 
C 173.53692 337.327141 174.702301 340.140619 176.776401 342.214719 
C 178.850501 344.288819 181.663979 345.4542 184.5972 345.4542 
z
" style="fill:#440154;"/>
    <path clip-path="url(#pb72919fb73)" d="M 162.47664 279.09252 
C 165.409861 279.09252 168.223339 277.927139 170.297439 275.853039 
C 172.371539 273.778939 173.53692 270.965461 173.53692 268.03224 
C 173.53692 265.099019 172.371539 262.285541 170.297439 260.211441 
C 168.223339 258.137341 165.409861 256.97196 162.47664 256.97196 
C 159.543419 256.97196 156.729941 258.137341 154.655841 260.211441 
C 152.581741 262.285541 151.41636 265.099019 151.41636 268.03224 
C 151.41636 270.965461 152.581741 273.778939 154.655841 275.853039 
C 156.729941 277.927139 159.543419 279.09252 162.47664 279.09252 
z
" style="fill:#440154;"/>
    <path clip-path="url(#pb72919fb73)" d="M 184.5972 301.21308 
C 187.530421 301.21308 190.343899 300.047699 192.417999 297.973599 
C 194.492099 295.899499 195.65748 293.086021 195.65748 290.1528 
C 195.65748 287.219579 194.492099 284.406101 192.417999 282.332001 
C 190.343899 280.257901 187.530421 279.09252 184.5972 279.09252 
C 181.663979 279.09252 178.850501 280.257901 176.776401 282.332001 
C 174.702301 284.406101 173.53692 287.219579 173.53692 290.1528 
C 173.53692 293.086021 174.702301 295.899499 176.776401 297.973599 
C 178.850501 300.047699 181.663979 301.21308 184.5972 301.21308 
z
" style="fill:#440154;"/>
    <path clip-path="url(#pb72919fb73)" d="M 162.47664 323.33364 
C 165.409861 323.33364 168.223339 322.168259 170.297439 320.094159 
C 172.371539 318.020059 173.53692 315.206581 173.53692 312.27336 
C 173.53692 309.340139 172.371539 306.526661 170.297439 304.452561 
C 168.223339 302.378461 165.409861 301.21308 162.47664 301.21308 
C 159.543419 301.21308 156.729941 302.378461 154.655841 304.452561 
C 152.581741 306.526661 151.41636 309.340139 151.41636 312.27336 
C 151.41636 315.206581 152.581741 318.020059 154.655841 320.094159 
C 156.729941 322.168259 159.543419 323.33364 162.47664 323.33364 
z
" style="fill:#440154;"/>
    <path clip-path="url(#pb72919fb73)" d="M 140.35608 301.21308 
C 143.289301 301.21308 146.102779 300.047699 148.176879 297.973599 
C 150.250979 295.899499 151.41636 293.086021 151.41636 290.1528 
C 151.41636 287.219579 150.250979 284.406101 148.176879 282.332001 
C 146.102779 280.257901 143.289301 279.09252 140.35608 279.09252 
C 137.422859 279.09252 134.609381 280.257901 132.535281 282.332001 
C 130.461181 284.406101 129.2958 287.219579 129.2958 290.1528 
C 129.2958 293.086021 130.461181 295.899499 132.535281 297.973599 
C 134.609381 300.047699 137.422859 301.21308 140.35608 301.21308 
z
" style="fill:#440154;"/>
   </g>
   <g id="matplotlib.axis_1">
    <g id="xtick_1">
     <g id="line2d_1">
      <defs>
       <path d="M 0 0 
L 0 3.5 
" id="mf88cce6e46" style="stroke:#000000;stroke-width:0.8;"/>
      </defs>
      <g>
       <use style="stroke:#000000;stroke-width:0.8;" x="118.23552" xlink:href="#mf88cce6e46" y="511.3584"/>
      </g>
     </g>
     <g id="text_1">
      <!-- 4 -->
      <defs>
       <path d="M 10.59375 35.5 
L 73.1875 35.5 
L 73.1875 27.203125 
L 10.59375 27.203125 
z
" id="DejaVuSans-8722"/>
       <path d="M 37.796875 64.3125 
L 12.890625 25.390625 
L 37.796875 25.390625 
z
M 35.203125 72.90625 
L 47.609375 72.90625 
L 47.609375 25.390625 
L 58.015625 25.390625 
L 58.015625 17.1875 
L 47.609375 17.1875 
L 47.609375 0 
L 37.796875 0 
L 37.796875 17.1875 
L 4.890625 17.1875 
L 4.890625 26.703125 
z
" id="DejaVuSans-52"/>
      </defs>
      <g transform="translate(110.864426 525.956838)scale(0.1 -0.1)">
       <use xlink:href="#DejaVuSans-8722"/>
       <use x="83.789062" xlink:href="#DejaVuSans-52"/>
      </g>
     </g>
    </g>
    <g id="xtick_2">
     <g id="line2d_2">
      <g>
       <use style="stroke:#000000;stroke-width:0.8;" x="206.71776" xlink:href="#mf88cce6e46" y="511.3584"/>
      </g>
     </g>
     <g id="text_2">
      <!-- 2 -->
      <defs>
       <path d="M 19.1875 8.296875 
L 53.609375 8.296875 
L 53.609375 0 
L 7.328125 0 
L 7.328125 8.296875 
Q 12.9375 14.109375 22.625 23.890625 
Q 32.328125 33.6875 34.8125 36.53125 
Q 39.546875 41.84375 41.421875 45.53125 
Q 43.3125 49.21875 43.3125 52.78125 
Q 43.3125 58.59375 39.234375 62.25 
Q 35.15625 65.921875 28.609375 65.921875 
Q 23.96875 65.921875 18.8125 64.3125 
Q 13.671875 62.703125 7.8125 59.421875 
L 7.8125 69.390625 
Q 13.765625 71.78125 18.9375 73 
Q 24.125 74.21875 28.421875 74.21875 
Q 39.75 74.21875 46.484375 68.546875 
Q 53.21875 62.890625 53.21875 53.421875 
Q 53.21875 48.921875 51.53125 44.890625 
Q 49.859375 40.875 45.40625 35.40625 
Q 44.1875 33.984375 37.640625 27.21875 
Q 31.109375 20.453125 19.1875 8.296875 
z
" id="DejaVuSans-50"/>
      </defs>
      <g transform="translate(199.346666 525.956838)scale(0.1 -0.1)">
       <use xlink:href="#DejaVuSans-8722"/>
       <use x="83.789062" xlink:href="#DejaVuSans-50"/>
      </g>
     </g>
    </g>
    <g id="xtick_3">
     <g id="line2d_3">
      <g>
       <use style="stroke:#000000;stroke-width:0.8;" x="295.2" xlink:href="#mf88cce6e46" y="511.3584"/>
      </g>
     </g>
     <g id="text_3">
      <!-- 0 -->
      <defs>
       <path d="M 31.78125 66.40625 
Q 24.171875 66.40625 20.328125 58.90625 
Q 16.5 51.421875 16.5 36.375 
Q 16.5 21.390625 20.328125 13.890625 
Q 24.171875 6.390625 31.78125 6.390625 
Q 39.453125 6.390625 43.28125 13.890625 
Q 47.125 21.390625 47.125 36.375 
Q 47.125 51.421875 43.28125 58.90625 
Q 39.453125 66.40625 31.78125 66.40625 
z
M 31.78125 74.21875 
Q 44.046875 74.21875 50.515625 64.515625 
Q 56.984375 54.828125 56.984375 36.375 
Q 56.984375 17.96875 50.515625 8.265625 
Q 44.046875 -1.421875 31.78125 -1.421875 
Q 19.53125 -1.421875 13.0625 8.265625 
Q 6.59375 17.96875 6.59375 36.375 
Q 6.59375 54.828125 13.0625 64.515625 
Q 19.53125 74.21875 31.78125 74.21875 
z
" id="DejaVuSans-48"/>
      </defs>
      <g transform="translate(292.01875 525.956838)scale(0.1 -0.1)">
       <use xlink:href="#DejaVuSans-48"/>
      </g>
     </g>
    </g>
    <g id="xtick_4">
     <g id="line2d_4">
      <g>
       <use style="stroke:#000000;stroke-width:0.8;" x="383.68224" xlink:href="#mf88cce6e46" y="511.3584"/>
      </g>
     </g>
     <g id="text_4">
      <!-- 2 -->
      <g transform="translate(380.50099 525.956838)scale(0.1 -0.1)">
       <use xlink:href="#DejaVuSans-50"/>
      </g>
     </g>
    </g>
    <g id="xtick_5">
     <g id="line2d_5">
      <g>
       <use style="stroke:#000000;stroke-width:0.8;" x="472.16448" xlink:href="#mf88cce6e46" y="511.3584"/>
      </g>
     </g>
     <g id="text_5">
      <!-- 4 -->
      <g transform="translate(468.98323 525.956838)scale(0.1 -0.1)">
       <use xlink:href="#DejaVuSans-52"/>
      </g>
     </g>
    </g>
   </g>
   <g id="matplotlib.axis_2">
    <g id="ytick_1">
     <g id="line2d_6">
      <defs>
       <path d="M 0 0 
L -3.5 0 
" id="m4d02299b5b" style="stroke:#000000;stroke-width:0.8;"/>
      </defs>
      <g>
       <use style="stroke:#000000;stroke-width:0.8;" x="73.9944" xlink:href="#m4d02299b5b" y="467.11728"/>
      </g>
     </g>
     <g id="text_6">
      <!-- 4 -->
      <g transform="translate(52.252212 470.916499)scale(0.1 -0.1)">
       <use xlink:href="#DejaVuSans-8722"/>
       <use x="83.789062" xlink:href="#DejaVuSans-52"/>
      </g>
     </g>
    </g>
    <g id="ytick_2">
     <g id="line2d_7">
      <g>
       <use style="stroke:#000000;stroke-width:0.8;" x="73.9944" xlink:href="#m4d02299b5b" y="378.63504"/>
      </g>
     </g>
     <g id="text_7">
      <!-- 2 -->
      <g transform="translate(52.252212 382.434259)scale(0.1 -0.1)">
       <use xlink:href="#DejaVuSans-8722"/>
       <use x="83.789062" xlink:href="#DejaVuSans-50"/>
      </g>
     </g>
    </g>
    <g id="ytick_3">
     <g id="line2d_8">
      <g>
       <use style="stroke:#000000;stroke-width:0.8;" x="73.9944" xlink:href="#m4d02299b5b" y="290.1528"/>
      </g>
     </g>
     <g id="text_8">
      <!-- 0 -->
      <g transform="translate(60.6319 293.952019)scale(0.1 -0.1)">
       <use xlink:href="#DejaVuSans-48"/>
      </g>
     </g>
    </g>
    <g id="ytick_4">
     <g id="line2d_9">
      <g>
       <use style="stroke:#000000;stroke-width:0.8;" x="73.9944" xlink:href="#m4d02299b5b" y="201.67056"/>
      </g>
     </g>
     <g id="text_9">
      <!-- 2 -->
      <g transform="translate(60.6319 205.469779)scale(0.1 -0.1)">
       <use xlink:href="#DejaVuSans-50"/>
      </g>
     </g>
    </g>
    <g id="ytick_5">
     <g id="line2d_10">
      <g>
       <use style="stroke:#000000;stroke-width:0.8;" x="73.9944" xlink:href="#m4d02299b5b" y="113.18832"/>
      </g>
     </g>
     <g id="text_10">
      <!-- 4 -->
      <g transform="translate(60.6319 116.987539)scale(0.1 -0.1)">
       <use xlink:href="#DejaVuSans-52"/>
      </g>
     </g>
    </g>
   </g>
   <g id="patch_3">
    <path d="M 73.9944 511.3584 
L 73.9944 68.9472 
" style="fill:none;stroke:#000000;stroke-linecap:square;stroke-linejoin:miter;stroke-width:0.8;"/>
   </g>
   <g id="patch_4">
    <path d="M 516.4056 511.3584 
L 516.4056 68.9472 
" style="fill:none;stroke:#000000;stroke-linecap:square;stroke-linejoin:miter;stroke-width:0.8;"/>
   </g>
   <g id="patch_5">
    <path d="M 73.9944 511.3584 
L 516.4056 511.3584 
" style="fill:none;stroke:#000000;stroke-linecap:square;stroke-linejoin:miter;stroke-width:0.8;"/>
   </g>
   <g id="patch_6">
    <path d="M 73.9944 68.9472 
L 516.4056 68.9472 
" style="fill:none;stroke:#000000;stroke-linecap:square;stroke-linejoin:miter;stroke-width:0.8;"/>
   </g>
  </g>
 </g>
 <defs>
  <clipPath id="pb72919fb73">
   <rect height="442.4112" width="442.4112" x="73.9944" y="68.9472"/>
  </clipPath>
 </defs>
</svg>
